<svg width="32" height="32" viewBox="0 0 32 32" fill="none" xmlns="http://www.w3.org/2000/svg">
<g clip-path="url(#clip0_2630_36943)">
<mask id="mask0_2630_36943" style="mask-type:alpha" maskUnits="userSpaceOnUse" x="7" y="7" width="14" height="14">
<path fill-rule="evenodd" clip-rule="evenodd" d="M20.3468 8.11664C16.9262 6.22844 12.5372 6.7349 9.63604 9.63604C6.7349 12.5372 6.22844 16.9262 8.11664 20.3468L20.3468 8.11664Z" fill="#7DD3FC"/>
</mask>
<g mask="url(#mask0_2630_36943)">
<path fill-rule="evenodd" clip-rule="evenodd" d="M7.00002 15.9816C7.00138 15.3011 7.07826 14.6384 7.22272 14.0013H9.00002L9.00002 16.0013H7.00024V16.067C7.00008 16.0447 7 16.0224 7 16L7.00002 16L7.00002 15.9816ZM9.29168 22C9.19174 21.8883 9.09455 21.7742 9.00021 21.6576L9.00002 20.0009L11.0002 20L11.0002 22H9.29168ZM11.0002 23.4846V22H13.0002V24H11.8728C11.5716 23.8443 11.2804 23.6721 11.0002 23.4846ZM13.0002 24.488V24H15.0002V24.9451C14.3068 24.8685 13.6371 24.713 13.0002 24.488ZM19.0002 24.4878C18.3634 24.7129 17.6937 24.8684 17.0002 24.945V24L19.0002 24V24.4878ZM20.1272 24L19.0002 24V22L20.9993 22L21 23.4845C20.7198 23.672 20.4285 23.8443 20.1272 24ZM24.777 18C24.6178 18.7013 24.3768 19.3715 24.0645 20L22.9993 20L23.0002 18H24.777ZM25 16.0024H23.0002V18H21.0002V16H23.0002L23.0005 14.0026L24.7775 14.0025C24.9231 14.6449 25 15.3135 25 16C25 16.0008 25 16.0016 25 16.0024ZM15.0004 7.05488C15.3286 7.01862 15.6621 7 16 7C16.3381 7 16.6719 7.01865 17.0004 7.05497V8H15.0022V10H13.0022V8H15.0004V7.05488ZM13.0009 7.51181C12.6119 7.64926 12.2352 7.81268 11.8728 8H13.0009V7.51181ZM11.0002 8.51539C10.3699 8.93729 9.79584 9.43671 9.29168 10H11.0002V8.51539ZM9.00024 10.3424V12H7.93552C8.23 11.4074 8.58786 10.8519 9.00024 10.3424ZM19.001 7.51248C19.3893 7.64978 19.7654 7.81298 20.1272 8H19.0012V9.99871H17.0012V7.99871H19.001V7.51248ZM21.0002 8.51571V10L19.0002 10L19.0002 12L17.0004 12V10.0017H15.0004V12.0017H17.0002V14L15.0002 14V12L13.0009 12V10.0017H11.0009L11.0009 11.9983H9.00086L9.00086 13.9983H11.0009V12.0017H13.0002L13.0002 14H11.0002L11.0009 16H9.00086V18H11.0009L11.0002 20H13.0002L13.0002 22H15.0002V24H17.0002V22H19.0002V20L20.9993 20V22L22.7083 22C22.8084 21.8882 22.9056 21.7739 23.0001 21.6572L22.9993 20H20.9993L21.0002 18L19.001 18L19.0002 16H21.0002V14H19.0002L19.0002 12L21.0002 12V10H22.7083C22.2043 9.43685 21.6304 8.93755 21.0002 8.51571ZM23.0002 10.343V12H24.0645C23.7701 11.4077 23.4124 10.8524 23.0002 10.343ZM17.0002 16L17.0002 14L19.0002 14V16L17.0002 16ZM17.001 18L17.0002 16H15.0002V14L13.0002 14V16L11.0009 16V18L13.0002 18L13.0002 20L15.0002 20V22H17.0002V20L19.0002 20L18.9996 18L17.001 18ZM15.0002 18V16H13.0002L13.0002 18H15.0002ZM15.0002 18H17.001L17.0002 20H15.0002V18ZM23.0005 14.0026H21.0005V12.0026L23.0005 12.0026V14.0026ZM7.93598 20.0009C7.62343 19.3722 7.38225 18.7017 7.22304 18.0001L9.00002 18.0009V20.0009H7.93598Z" fill="white"/>
</g>
<path fill-rule="evenodd" clip-rule="evenodd" d="M11.6523 23.8828C15.0731 25.7718 19.4628 25.2655 22.3643 22.364C25.2658 19.4626 25.772 15.0729 23.883 11.6521L11.6523 23.8828Z" fill="#7DD3FC"/>
<rect x="6.4541" y="24.8379" width="26" height="1" rx="0.5" transform="rotate(-45 6.4541 24.8379)" fill="#7DD3FC"/>
</g>
<defs>
<clipPath id="clip0_2630_36943">
<rect width="32" height="32" rx="8" fill="white"/>
</clipPath>
</defs>
</svg>
