<svg width="32" height="32" viewBox="0 0 32 32" fill="none" xmlns="http://www.w3.org/2000/svg">
<path d="M24.5 16C24.5 20.6944 20.6944 24.5 16 24.5C11.3056 24.5 7.5 20.6944 7.5 16C7.5 11.3056 11.3056 7.5 16 7.5C20.6944 7.5 24.5 11.3056 24.5 16Z" stroke="url(#paint0_linear_2965_3470)" stroke-width="1.5"/>
<g filter="url(#filter0_d_2965_3470)">
<path d="M15.0759 17.4159C14.8239 15.5319 17.3799 15.1119 17.3799 13.9479C17.3799 13.2159 16.8039 12.8079 15.8559 12.8079C15.1239 12.8079 14.5239 13.1439 13.9359 13.7559L12.9519 12.8559C13.7199 11.9679 14.7759 11.3799 16.0599 11.3799C17.7999 11.3799 19.0719 12.1959 19.0719 13.7919C19.0719 15.5439 16.4439 15.7599 16.6359 17.4159H15.0759ZM15.8679 20.6199C15.2439 20.6199 14.7999 20.1759 14.7999 19.5519C14.7999 18.9279 15.2559 18.4959 15.8679 18.4959C16.4679 18.4959 16.9239 18.9279 16.9239 19.5519C16.9239 20.1759 16.4679 20.6199 15.8679 20.6199Z" fill="url(#paint1_linear_2965_3470)"/>
</g>
<defs>
<filter id="filter0_d_2965_3470" x="5.9519" y="4.37988" width="22.1201" height="25.2402" filterUnits="userSpaceOnUse" color-interpolation-filters="sRGB">
<feFlood flood-opacity="0" result="BackgroundImageFix"/>
<feColorMatrix in="SourceAlpha" type="matrix" values="0 0 0 0 0 0 0 0 0 0 0 0 0 0 0 0 0 0 127 0" result="hardAlpha"/>
<feOffset dx="1" dy="1"/>
<feGaussianBlur stdDeviation="4"/>
<feComposite in2="hardAlpha" operator="out"/>
<feColorMatrix type="matrix" values="0 0 0 0 0 0 0 0 0 0 0 0 0 0 0 0 0 0 0.4 0"/>
<feBlend mode="normal" in2="BackgroundImageFix" result="effect1_dropShadow_2965_3470"/>
<feBlend mode="normal" in="SourceGraphic" in2="effect1_dropShadow_2965_3470" result="shape"/>
</filter>
<linearGradient id="paint0_linear_2965_3470" x1="7" y1="12.823" x2="25" y2="21.5" gradientUnits="userSpaceOnUse">
<stop stop-color="#BEF264"/>
<stop offset="1" stop-color="#0EA5E9"/>
</linearGradient>
<linearGradient id="paint1_linear_2965_3470" x1="10.5341" y1="14.8947" x2="20" y2="19" gradientUnits="userSpaceOnUse">
<stop stop-color="#BEF264"/>
<stop offset="1" stop-color="#0EA5E9"/>
</linearGradient>
</defs>
</svg>
