<svg width="16" height="16" viewBox="0 0 16 16" fill="none" xmlns="http://www.w3.org/2000/svg">
<path fill-rule="evenodd" clip-rule="evenodd" d="M8 1.5C4.41015 1.5 1.5 4.41015 1.5 8C1.5 11.5899 4.41015 14.5 8 14.5C11.5899 14.5 14.5 11.5899 14.5 8C14.5 4.41015 11.5899 1.5 8 1.5ZM0 8C0 3.58172 3.58172 0 8 0C12.4183 0 16 3.58172 16 8C16 12.4183 12.4183 16 8 16C3.58172 16 0 12.4183 0 8Z" fill="currentColor"/>
<path d="M6.80575 3.74876C6.77537 3.06828 7.31885 2.5 8 2.5V2.5C8.68115 2.5 9.22463 3.06828 9.19425 3.74876L8.97931 8.56343C8.95592 9.08731 8.5244 9.5 8 9.5V9.5C7.4756 9.5 7.04408 9.08731 7.02069 8.56343L6.80575 3.74876Z" fill="currentColor"/>
<circle cx="8.0001" cy="11.9" r="1.4" fill="currentColor"/>
</svg>
