<svg width="32" height="32" viewBox="0 0 32 32" fill="none" xmlns="http://www.w3.org/2000/svg">
<rect x="2" y="6" width="28" height="24" rx="7" fill="#3F3F46"/>
<rect x="2.5" y="2.5" width="27" height="25" rx="6.5" fill="#1C1C1F" stroke="#3F3F46"/>
<path fill-rule="evenodd" clip-rule="evenodd" d="M15.2526 19.8828C15.2526 20.7364 16.2534 21.1976 16.9024 20.6429L22.6146 15.7606C23.0816 15.3614 23.0816 14.6395 22.6146 14.2403L16.9024 9.35797C16.2534 8.80331 15.2526 9.26445 15.2526 10.1181L15.2526 11.6499C15.2526 12.2022 14.8049 12.6499 14.2526 12.6499L10.0018 12.6499C9.44948 12.6499 9.00176 13.0977 9.00176 13.6499L9.00176 16.3516C9.00176 16.9039 9.44948 17.3516 10.0018 17.3516L14.2526 17.3516C14.8049 17.3516 15.2526 17.7993 15.2526 18.3516L15.2526 19.8828Z" fill="white"/>
</svg>
