<svg width="32" height="32" viewBox="0 0 32 32" fill="none" xmlns="http://www.w3.org/2000/svg">
<rect x="2" y="6" width="28" height="24" rx="7" fill="#3F3F46"/>
<rect x="2.5" y="2.5" width="27" height="25" rx="6.5" fill="#1C1C1F" stroke="#3F3F46"/>
<path fill-rule="evenodd" clip-rule="evenodd" d="M16.7494 19.8826C16.7494 20.7364 15.7485 21.1975 15.0996 20.6427L9.38878 15.7607C8.92184 15.3616 8.92184 14.6397 9.38878 14.2405L15.0996 9.35852C15.7485 8.80377 16.7494 9.26489 16.7494 10.1186L16.7494 11.6499C16.7494 12.2022 17.1971 12.6499 17.7494 12.6499L21.9988 12.6499C22.5511 12.6499 22.9988 13.0976 22.9988 13.6499L22.9988 16.3515C22.9988 16.9038 22.5511 17.3515 21.9988 17.3515L17.7494 17.3515C17.1971 17.3515 16.7494 17.7992 16.7494 18.3515L16.7494 19.8826Z" fill="white"/>
</svg>
