<svg width="16" height="16" viewBox="0 0 16 16" fill="none" xmlns="http://www.w3.org/2000/svg">
<path d="M5.99988 3C6.10853 3.00002 6.2142 3.03543 6.30093 3.10087C6.38766 3.1663 6.45071 3.2582 6.48055 3.36267L7.02255 5.26C7.13925 5.66861 7.35818 6.04073 7.65867 6.34122C7.95915 6.6417 8.33127 6.86063 8.73988 6.97733L10.6372 7.51933C10.7416 7.54924 10.8334 7.61232 10.8988 7.69904C10.9642 7.78576 10.9995 7.8914 10.9995 8C10.9995 8.1086 10.9642 8.21424 10.8988 8.30096C10.8334 8.38768 10.7416 8.45076 10.6372 8.48067L8.73988 9.02267C8.33127 9.13937 7.95915 9.3583 7.65867 9.65878C7.35818 9.95927 7.13925 10.3314 7.02255 10.74L6.48055 12.6373C6.45064 12.7417 6.38756 12.8336 6.30084 12.8989C6.21412 12.9643 6.10848 12.9996 5.99988 12.9996C5.89129 12.9996 5.78564 12.9643 5.69892 12.8989C5.6122 12.8336 5.54912 12.7417 5.51922 12.6373L4.97722 10.74C4.86052 10.3314 4.64159 9.95927 4.3411 9.65878C4.04062 9.3583 3.6685 9.13937 3.25988 9.02267L1.36255 8.48067C1.25815 8.45076 1.16633 8.38768 1.10097 8.30096C1.0356 8.21424 1.00024 8.1086 1.00024 8C1.00024 7.8914 1.0356 7.78576 1.10097 7.69904C1.16633 7.61232 1.25815 7.54924 1.36255 7.51933L3.25988 6.97733C3.6685 6.86063 4.04062 6.6417 4.3411 6.34122C4.64159 6.04073 4.86052 5.66861 4.97722 5.26L5.51922 3.36267C5.54906 3.2582 5.61211 3.1663 5.69884 3.10087C5.78556 3.03543 5.89124 3.00002 5.99988 3ZM11.9999 1C12.1114 0.999938 12.2198 1.03718 12.3077 1.10579C12.3957 1.17441 12.4582 1.27046 12.4852 1.37867L12.6572 2.06933C12.8146 2.696 13.3039 3.18533 13.9306 3.34267L14.6212 3.51467C14.7296 3.54152 14.8259 3.6039 14.8948 3.69187C14.9636 3.77983 15.001 3.88831 15.001 4C15.001 4.11169 14.9636 4.22017 14.8948 4.30813C14.8259 4.3961 14.7296 4.45848 14.6212 4.48533L13.9306 4.65733C13.3039 4.81467 12.8146 5.304 12.6572 5.93067L12.4852 6.62133C12.4584 6.72975 12.396 6.82605 12.308 6.89489C12.2201 6.96372 12.1116 7.00112 11.9999 7.00112C11.8882 7.00112 11.7797 6.96372 11.6918 6.89489C11.6038 6.82605 11.5414 6.72975 11.5146 6.62133L11.3426 5.93067C11.2656 5.62295 11.1065 5.34193 10.8822 5.11765C10.658 4.89337 10.3769 4.73426 10.0692 4.65733L9.37855 4.48533C9.27013 4.45848 9.17383 4.3961 9.105 4.30813C9.03616 4.22017 8.99876 4.11169 8.99876 4C8.99876 3.88831 9.03616 3.77983 9.105 3.69187C9.17383 3.6039 9.27013 3.54152 9.37855 3.51467L10.0692 3.34267C10.3769 3.26574 10.658 3.10663 10.8822 2.88235C11.1065 2.65807 11.2656 2.37705 11.3426 2.06933L11.5146 1.37867C11.5416 1.27046 11.6041 1.17441 11.692 1.10579C11.78 1.03718 11.8883 0.999938 11.9999 1ZM10.9999 10C11.1049 9.99994 11.2073 10.0329 11.2925 10.0943C11.3777 10.1557 11.4414 10.2424 11.4746 10.342L11.7372 11.1307C11.8372 11.4287 12.0706 11.6633 12.3692 11.7627L13.1579 12.026C13.2572 12.0593 13.3435 12.123 13.4047 12.2081C13.4658 12.2931 13.4987 12.3952 13.4987 12.5C13.4987 12.6048 13.4658 12.7069 13.4047 12.7919C13.3435 12.877 13.2572 12.9407 13.1579 12.974L12.3692 13.2373C12.0712 13.3373 11.8366 13.5707 11.7372 13.8693L11.4739 14.658C11.4405 14.7573 11.3769 14.8436 11.2918 14.9048C11.2068 14.966 11.1046 14.9989 10.9999 14.9989C10.8951 14.9989 10.793 14.966 10.708 14.9048C10.6229 14.8436 10.5592 14.7573 10.5259 14.658L10.2626 13.8693C10.2134 13.7222 10.1308 13.5885 10.0211 13.4788C9.9114 13.3691 9.7777 13.2864 9.63055 13.2373L8.84188 12.974C8.74257 12.9407 8.65624 12.877 8.59508 12.7919C8.53392 12.7069 8.50102 12.6048 8.50102 12.5C8.50102 12.3952 8.53392 12.2931 8.59508 12.2081C8.65624 12.123 8.74257 12.0593 8.84188 12.026L9.63055 11.7627C9.92855 11.6627 10.1632 11.4293 10.2626 11.1307L10.5259 10.342C10.559 10.2425 10.6226 10.1559 10.7077 10.0945C10.7928 10.0331 10.895 10.0001 10.9999 10Z" fill="currentColor"/>
</svg>
