<svg width="32" height="32" viewBox="0 0 32 32" fill="none" xmlns="http://www.w3.org/2000/svg">
<path d="M24.5 16C24.5 17.1162 24.2801 18.2215 23.853 19.2528C23.4258 20.2841 22.7997 21.2211 22.0104 22.0104C21.2211 22.7997 20.2841 23.4258 19.2528 23.853C18.2215 24.2801 17.1162 24.5 16 24.5" stroke="#0C4A6E" stroke-width="1.5"/>
<path d="M16 24.5C14.3189 24.5 12.6755 24.0015 11.2777 23.0675C9.87983 22.1335 8.79037 20.806 8.14702 19.2528C7.50368 17.6996 7.33535 15.9906 7.66333 14.3417C7.9913 12.6929 8.80085 11.1783 9.98959 9.98959C11.1783 8.80085 12.6929 7.9913 14.3417 7.66332C15.9906 7.33535 17.6996 7.50368 19.2528 8.14702C20.806 8.79037 22.1335 9.87984 23.0675 11.2777C24.0015 12.6755 24.5 14.3189 24.5 16" stroke="#0EA5E9" stroke-width="1.5" stroke-linecap="round" stroke-linejoin="bevel"/>
</svg>
