<svg width="32" height="32" viewBox="0 0 32 32" fill="none" xmlns="http://www.w3.org/2000/svg">
<g clip-path="url(#clip0_3664_50394)">
<path d="M8.03713 6.82693C7.07805 6.66184 6.24434 7.49556 6.40943 8.45463L8.99256 23.4613C9.0981 24.0745 9.48073 24.7948 10.2654 24.9779C11.6159 25.2929 13.269 24.7916 14.8937 23.9106C15.8813 23.3751 16.8937 22.6802 17.8741 21.8837C18.1012 21.6992 18.1147 21.3594 17.9078 21.1525C17.7238 20.9685 17.4299 20.9565 17.2277 21.1204C16.2945 21.8773 15.3387 22.5318 14.417 23.0315C12.8484 23.8821 11.4735 24.2329 10.4926 24.004C10.2626 23.9504 10.0493 23.7054 9.97807 23.2917L7.39493 8.28499C7.347 8.00655 7.58905 7.76451 7.86749 7.81243L22.8813 10.3968C23.2904 10.4672 23.5383 10.6776 23.597 10.9089C23.8483 11.8986 23.5095 13.2691 22.6617 14.8294C22.1577 15.757 21.4922 16.7178 20.7206 17.655C20.5543 17.857 20.5652 18.153 20.7502 18.338C20.956 18.5438 21.2938 18.5317 21.479 18.3072C22.2914 17.3222 22.9991 16.303 23.5404 15.3069C24.4211 13.6858 24.9132 12.0292 24.5663 10.6628C24.3707 9.89241 23.6604 9.51619 23.0509 9.41128L8.03713 6.82693Z" fill="#7DD3FC"/>
<circle cx="24.0079" cy="24.4255" r="0.5" transform="rotate(-45 24.0079 24.4255)" fill="white"/>
<path d="M22.2401 22.6578L16.5833 17.0009" stroke="white" stroke-linecap="round" stroke-linejoin="round"/>
<circle cx="15.169" cy="15.5867" r="2" transform="rotate(-45 15.169 15.5867)" stroke="white"/>
</g>
<defs>
<clipPath id="clip0_3664_50394">
<rect width="32" height="32" rx="8" fill="white"/>
</clipPath>
</defs>
</svg>
